<svg width="256" height="256" viewBox="0 0 256 256" xmlns="http://www.w3.org/2000/svg">
  <!-- 背景圆形 -->
  <circle cx="128" cy="128" r="120" fill="#8B4513" stroke="#654321" stroke-width="4"/>
  
  <!-- 兔子身体 -->
  <ellipse cx="128" cy="140" rx="45" ry="35" fill="#F5DEB3"/>
  
  <!-- 兔子头部 -->
  <circle cx="128" cy="100" r="30" fill="#F5DEB3"/>
  
  <!-- 兔子耳朵 -->
  <ellipse cx="115" cy="75" rx="8" ry="20" fill="#F5DEB3"/>
  <ellipse cx="141" cy="75" rx="8" ry="20" fill="#F5DEB3"/>
  <ellipse cx="115" cy="75" rx="4" ry="15" fill="#FFB6C1"/>
  <ellipse cx="141" cy="75" rx="4" ry="15" fill="#FFB6C1"/>
  
  <!-- 眼睛 -->
  <circle cx="120" cy="95" r="4" fill="#333"/>
  <circle cx="136" cy="95" r="4" fill="#333"/>
  <circle cx="121" cy="93" r="1" fill="#FFF"/>
  <circle cx="137" cy="93" r="1" fill="#FFF"/>
  
  <!-- 鼻子 -->
  <ellipse cx="128" cy="105" rx="2" ry="1" fill="#FFB6C1"/>
  
  <!-- 嘴巴 -->
  <path d="M 128 107 L 125 110 M 128 107 L 131 110" stroke="#333" stroke-width="1" fill="none"/>
  
  <!-- 胡须 -->
  <line x1="110" y1="100" x2="100" y2="98" stroke="#333" stroke-width="1"/>
  <line x1="110" y1="105" x2="100" y2="105" stroke="#333" stroke-width="1"/>
  <line x1="146" y1="100" x2="156" y2="98" stroke="#333" stroke-width="1"/>
  <line x1="146" y1="105" x2="156" y2="105" stroke="#333" stroke-width="1"/>
  
  <!-- 尾巴 -->
  <circle cx="170" cy="140" r="8" fill="#F5DEB3"/>
  
  <!-- 脚 -->
  <ellipse cx="115" cy="170" rx="8" ry="12" fill="#F5DEB3"/>
  <ellipse cx="141" cy="170" rx="8" ry="12" fill="#F5DEB3"/>
  
  <!-- 装饰文字 -->
  <text x="128" y="220" text-anchor="middle" font-family="serif" font-size="16" fill="#8B4513">野兔</text>
</svg>
